<svg xmlns="http://www.w3.org/2000/svg" viewBox="0 0 120 120">
	<title>Area</title>
	<!--<g id="Rahmen"><path d="M105.5,5a9.29,9.29,0,0,1,9.5,9.5v90c0,5.5-4.53,10.5-9.5,10.5h-90C10.3,115,5,109.7,5,104.5v-90C5,9.26,9.71,5,15.5,5h90m0-5h-90C7.22,0,0,6.22,0,14.5v90c0,8,7.5,15.5,15.5,15.5h90c8,0,14.5-7.5,14.5-15.5v-90A14.33,14.33,0,0,0,105.5,0Z" transform="translate(0)" fill="#4c4a4a"/></g>-->
	<g id="Fläche">
		<rect x="53.59" y="25.07" width="4.46" height="4.46" rx="1" ry="1" fill="#C5C0C3" stroke="#FFFFFE" stroke-miterlimit="10" stroke-width="0.25"/>
		<line x1="79.5" y1="32" x2="96.5" y2="32" fill="none" stroke="#FFFFFE" stroke-miterlimit="10" stroke-width="3"/>
		<line x1="88" y1="23.5" x2="88" y2="40.5" fill="none" stroke="#FFFFFE" stroke-miterlimit="10" stroke-width="3"/>
		<line x1="23.5" y1="25" x2="40.5" y2="25" fill="none" stroke="#FFFFFE" stroke-miterlimit="10" stroke-width="3"/>
		<line x1="32" y1="16.5" x2="32" y2="33.5" fill="none" stroke="#FFFFFE" stroke-miterlimit="10" stroke-width="3"/>
		<rect x="45.01" y="23.97" width="4.46" height="4.46" rx="1" ry="1" fill="#C5C0C3" stroke="#FFFFFE" stroke-miterlimit="10" stroke-width="0.25"/>
		<rect x="22.29" y="73.67" width="4.46" height="4.46" rx="1" ry="1" fill="#C5C0C3" stroke="#FFFFFE" stroke-miterlimit="10" stroke-width="0.25"/>
		<rect x="23.61" y="64.4" width="4.46" height="4.46" rx="1" ry="1" fill="#C5C0C3" stroke="#FFFFFE" stroke-miterlimit="10" stroke-width="0.25"/>
		<rect x="24.93" y="55.12" width="4.46" height="4.46" rx="1" ry="1" fill="#C5C0C3" stroke="#FFFFFE" stroke-miterlimit="10" stroke-width="0.25"/>
		<rect x="26.15" y="46.26" width="4.46" height="4.46" rx="1" ry="1" fill="#C5C0C3" stroke="#FFFFFE" stroke-miterlimit="10" stroke-width="0.25"/>
		<rect x="27.45" y="37.41" width="4.46" height="4.46" rx="1" ry="1" fill="#C5C0C3" stroke="#FFFFFE" stroke-miterlimit="10" stroke-width="0.25"/>
		<line x1="13.5" y1="91" x2="30.5" y2="91" fill="none" stroke="#FFFFFE" stroke-miterlimit="10" stroke-width="3"/>
		<line x1="22" y1="82.5" x2="22" y2="99.5" fill="none" stroke="#FFFFFE" stroke-miterlimit="10" stroke-width="3"/>
		<line x1="89.5" y1="96" x2="106.5" y2="96" fill="none" stroke="#FFFFFE" stroke-miterlimit="10" stroke-width="3"/>
		<line x1="98" y1="87.5" x2="98" y2="104.5" fill="none" stroke="#FFFFFE" stroke-miterlimit="10" stroke-width="3"/>
		<rect x="61.93" y="26.15" width="4.46" height="4.46" rx="1" ry="1" fill="#C5C0C3" stroke="#FFFFFE" stroke-miterlimit="10" stroke-width="0.25"/>
		<rect x="70.22" y="27.22" width="4.46" height="4.46" rx="1" ry="1" fill="#C5C0C3" stroke="#FFFFFE" stroke-miterlimit="10" stroke-width="0.25"/>
		<rect x="88.12" y="44.04" width="4.46" height="4.46" rx="1" ry="1" fill="#C5C0C3" stroke="#FFFFFE" stroke-miterlimit="10" stroke-width="0.25"/>
		<rect x="89.46" y="52.36" width="4.46" height="4.46" rx="1" ry="1" fill="#C5C0C3" stroke="#FFFFFE" stroke-miterlimit="10" stroke-width="0.25"/>
		<rect x="90.85" y="60.91" width="4.46" height="4.46" rx="1" ry="1" fill="#C5C0C3" stroke="#FFFFFE" stroke-miterlimit="10" stroke-width="0.25"/>
		<rect x="92.23" y="69.46" width="4.46" height="4.46" rx="1" ry="1" fill="#C5C0C3" stroke="#FFFFFE" stroke-miterlimit="10" stroke-width="0.25"/>
		<rect x="93.59" y="77.84" width="4.46" height="4.46" rx="1" ry="1" fill="#C5C0C3" stroke="#FFFFFE" stroke-miterlimit="10" stroke-width="0.25"/>
		<rect x="35" y="90.18" width="4.46" height="4.46" rx="1" ry="1" fill="#C5C0C3" stroke="#FFFFFE" stroke-miterlimit="10" stroke-width="0.25"/>
		<rect x="43.84" y="90.7" width="4.46" height="4.46" rx="1" ry="1" fill="#C5C0C3" stroke="#FFFFFE" stroke-miterlimit="10" stroke-width="0.25"/>
		<rect x="52.83" y="91.22" width="4.46" height="4.46" rx="1" ry="1" fill="#C5C0C3" stroke="#FFFFFE" stroke-miterlimit="10" stroke-width="0.25"/>
		<rect x="61.82" y="91.74" width="4.46" height="4.46" rx="1" ry="1" fill="#C5C0C3" stroke="#FFFFFE" stroke-miterlimit="10" stroke-width="0.25"/>
		<rect x="70.97" y="92.28" width="4.46" height="4.46" rx="1" ry="1" fill="#C5C0C3" stroke="#FFFFFE" stroke-miterlimit="10" stroke-width="0.25"/>
		<rect x="80.38" y="92.82" width="4.46" height="4.46" rx="1" ry="1" fill="#C5C0C3" stroke="#FFFFFE" stroke-miterlimit="10" stroke-width="0.25"/>
	</g>
</svg>