<svg xmlns="http://www.w3.org/2000/svg" viewBox="0 0 120 120">
	<title>Volume</title>
	<!--<g id="Rahmen"><path d="M105.5,5a9.29,9.29,0,0,1,9.5,9.5v90c0,5.5-4.53,10.5-9.5,10.5h-90C10.3,115,5,109.7,5,104.5v-90C5,9.26,9.71,5,15.5,5h90m0-5h-90C7.22,0,0,6.22,0,14.5v90c0,8,7.5,15.5,15.5,15.5h90c8,0,14.5-7.5,14.5-15.5v-90A14.33,14.33,0,0,0,105.5,0Z" transform="translate(0)" fill="#4c4a4a"/></g>-->
	<g id="Volume">
		<polygon points="55 105 20 85 20 45 55 65 55 105" fill="#C5C0C3" stroke="#FFFFFE" stroke-width="2" stroke-miterlimit="5"/>
		<polygon points="100 85 65 105 65 65 100 45 100 85" fill="#C5C0C3" stroke="#FFFFFE" stroke-width="2" stroke-miterlimit="5"/>
		<polygon points="60 55 25 35 60 15 95 35 60 55" fill="#C5C0C3" stroke="#FFFFFE" stroke-width="2" stroke-miterlimit="5"/>
	</g>
</svg>